<svg xmlns="http://www.w3.org/2000/svg" width="640" height="360" viewBox="0 0 640 360" role="img">
<rect width="640" height="360" fill="#FAFAF7"/>
<rect x="0.5" y="0.5" width="639" height="359" fill="none" stroke="#E6E5DF"/>
<polyline points="60,152 69,160 78,167 87,175 96,182 105,189 114,195 123,201 132,206 141,211 150,215 159,218 168,220 177,221 186,222 195,222 204,221 213,218 222,216 231,212 240,208 249,203 258,197 267,191 276,184 285,177 294,170 303,162 312,154 321,146 330,139 339,131 348,124 357,117 366,110 375,104 384,99 393,94 402,90 411,87 420,84 429,83 438,82 447,82 456,83 465,85 474,87 483,91 492,95 501,100 510,105 519,112 528,118 537,125 546,132 555,140 564,148 573,156 582,163 591,171 600,178 609,185" fill="none" stroke="#0B5563" stroke-width="2" opacity="0.18"/>
<polyline points="60,166 69,174 78,181 87,189 96,196 105,203 114,209 123,215 132,220 141,225 150,229 159,232 168,234 177,235 186,236 195,236 204,235 213,232 222,230 231,226 240,222 249,217 258,211 267,205 276,198 285,191 294,184 303,176 312,168 321,160 330,153 339,145 348,138 357,131 366,124 375,118 384,113 393,108 402,104 411,101 420,98 429,97 438,96 447,96 456,97 465,99 474,101 483,105 492,109 501,114 510,119 519,126 528,132 537,139 546,146 555,154 564,162 573,170 582,177 591,185 600,192 609,199" fill="none" stroke="#0B5563" stroke-width="2" opacity="0.3"/>
<polyline points="60,180 69,188 78,195 87,203 96,210 105,217 114,223 123,229 132,234 141,239 150,243 159,246 168,248 177,249 186,250 195,250 204,249 213,246 222,244 231,240 240,236 249,231 258,225 267,219 276,212 285,205 294,198 303,190 312,182 321,174 330,167 339,159 348,152 357,145 366,138 375,132 384,127 393,122 402,118 411,115 420,112 429,111 438,110 447,110 456,111 465,113 474,115 483,119 492,123 501,128 510,133 519,140 528,146 537,153 546,160 555,168 564,176 573,184 582,191 591,199 600,206 609,213" fill="none" stroke="#16181C" stroke-width="2" opacity="0.95"/>
<polyline points="60,194 69,202 78,209 87,217 96,224 105,231 114,237 123,243 132,248 141,253 150,257 159,260 168,262 177,263 186,264 195,264 204,263 213,260 222,258 231,254 240,250 249,245 258,239 267,233 276,226 285,219 294,212 303,204 312,196 321,188 330,181 339,173 348,166 357,159 366,152 375,146 384,141 393,136 402,132 411,129 420,126 429,125 438,124 447,124 456,125 465,127 474,129 483,133 492,137 501,142 510,147 519,154 528,160 537,167 546,174 555,182 564,190 573,198 582,205 591,213 600,220 609,227" fill="none" stroke="#0B5563" stroke-width="2" opacity="0.3"/>
<polyline points="60,208 69,216 78,223 87,231 96,238 105,245 114,251 123,257 132,262 141,267 150,271 159,274 168,276 177,277 186,278 195,278 204,277 213,274 222,272 231,268 240,264 249,259 258,253 267,247 276,240 285,233 294,226 303,218 312,210 321,202 330,195 339,187 348,180 357,173 366,166 375,160 384,155 393,150 402,146 411,143 420,140 429,139 438,138 447,138 456,139 465,141 474,143 483,147 492,151 501,156 510,161 519,168 528,174 537,181 546,188 555,196 564,204 573,212 582,219 591,227 600,234 609,241" fill="none" stroke="#0B5563" stroke-width="2" opacity="0.18"/>
</svg>
