<svg xmlns="http://www.w3.org/2000/svg" width="640" height="360" viewBox="0 0 640 360" role="img">
<rect width="640" height="360" fill="#FAFAF7"/>
<rect x="0.5" y="0.5" width="639" height="359" fill="none" stroke="#E6E5DF"/>
<polyline points="470.0,180.0 461.0,211.9 445.8,239.9 425.5,263.0 401.5,280.4 375.3,291.7 348.3,296.7 321.8,295.7 297.1,289.2 275.3,277.7 257.2,262.4 243.5,244.1 234.5,224.0 230.3,203.2 230.7,182.7 235.5,163.6 244.1,146.6 255.7,132.5 269.7,121.7 285.1,114.5 301.1,111.0 316.9,111.2 331.7,114.6 344.8,121.0 355.9,129.8 364.4,140.5 370.1,152.3 373.0,164.6 373.1,176.8 370.6,188.2 365.8,198.5 359.1,207.1 351.0,213.8 342.0,218.3 332.5,220.7 323.1,220.9 314.2,219.1 306.3,215.5 299.6,210.5 294.3,204.3 290.7,197.4 288.7,190.1 288.5,182.9 289.8,176.0 292.4,169.8 296.2,164.6 300.9,160.5 306.2,157.6 311.8,156.0 317.4,155.7 322.7,156.6 327.5,158.6 331.6,161.5 334.8,165.1 337.1,169.1" fill="none" stroke="#0B5563" stroke-width="2.2" opacity="0.85"/>
<polyline points="315.6,329.9 284.0,320.0 256.5,304.0 234.0,283.0 217.2,258.6 206.7,232.0 202.5,204.8 204.3,178.4 211.6,153.9 223.6,132.4 239.5,114.8 258.2,101.6 278.5,93.2 299.5,89.6 319.9,90.7 338.9,96.0 355.6,105.1 369.3,117.1 379.7,131.4 386.5,147.0 389.5,163.1 388.9,178.9 385.0,193.6 378.2,206.6 369.1,217.3 358.2,225.5 346.3,230.9 333.9,233.4 321.7,233.1 310.3,230.3 300.2,225.2 291.8,218.3 285.3,210.0 281.0,200.9 279.0,191.3 279.0,181.9 281.1,173.1 284.9,165.3 290.1,158.7 296.4,153.6 303.5,150.2 310.8,148.5 318.0,148.4 324.9,149.9 331.0,152.7 336.1,156.7 340.1,161.5 342.8,166.9 344.2,172.5 344.4,178.1 343.3,183.4 341.2,188.1 338.2,192.1 334.5,195.3 330.4,197.4" fill="none" stroke="#3E8693" stroke-width="2.2" opacity="0.85"/>
<circle cx="320" cy="180" r="4" fill="#16181C"/>
</svg>
